<?xml version="1.0" encoding="UTF-8" ?>
<!DOCTYPE svg PUBLIC "-//W3C//DTD SVG 1.1//EN" "http://www.w3.org/Graphics/SVG/1.1/DTD/svg11.dtd">
<svg width="131pt" height="143pt" viewBox="0 0 131 143" version="1.1" xmlns="http://www.w3.org/2000/svg">
<path fill="#ffffff" d=" M 0.00 0.00 L 131.00 0.00 L 131.00 143.00 L 0.00 143.00 L 0.00 0.00 Z" />
<path fill="#008349" d=" M 58.07 3.19 C 66.45 2.83 75.03 2.59 83.12 5.14 C 105.01 11.20 122.81 29.80 127.83 51.95 C 129.38 57.50 128.94 63.30 129.01 68.99 C 129.51 81.41 124.78 93.59 117.76 103.67 C 108.60 116.66 94.43 126.05 78.85 129.25 C 62.70 132.74 45.22 129.64 31.31 120.71 C 17.27 111.86 6.93 97.35 3.24 81.17 C 1.47 74.23 2.05 67.00 2.08 59.92 C 4.32 30.98 29.23 5.96 58.07 3.19 Z" />
<path fill="#ffffff" d=" M 62.02 7.98 C 75.66 7.13 89.59 11.23 100.54 19.43 C 112.94 28.51 121.50 42.68 123.69 57.90 C 126.03 72.71 122.28 88.33 113.62 100.55 C 104.84 113.00 91.12 121.89 76.08 124.51 C 61.38 127.27 45.69 124.05 33.23 115.78 C 19.60 106.84 9.91 92.04 7.51 75.89 C 4.96 60.63 8.92 44.45 18.08 32.01 C 28.18 17.98 44.77 8.94 62.02 7.98 Z" />
<path fill="#e2383f" d=" M 51.77 22.14 C 52.15 17.83 58.27 16.06 61.87 17.31 C 65.81 18.90 63.51 24.33 66.64 26.58 C 67.46 28.84 63.95 30.94 61.98 30.04 C 59.74 28.68 58.19 31.67 55.96 31.32 C 53.36 31.67 50.81 28.56 52.25 26.17 C 53.45 23.67 56.54 23.33 58.91 22.61 C 58.63 21.39 58.20 20.20 57.39 19.22 C 55.89 20.64 54.11 24.57 51.77 22.14 Z" />
<path fill="#e2383f" d=" M 71.09 18.76 C 73.23 17.25 78.41 16.55 79.21 19.79 C 80.43 19.53 81.72 18.26 82.94 19.21 C 86.07 20.18 85.37 25.81 81.99 25.73 C 80.15 25.95 79.32 24.23 78.46 22.98 C 77.63 24.88 76.31 27.28 77.87 29.18 C 79.33 30.43 77.42 32.40 75.96 31.65 C 73.23 31.01 69.81 30.77 68.30 28.03 C 71.50 26.32 72.88 21.94 71.09 18.76 Z" />
<path fill="#e2353c" d=" M 92.26 20.35 C 94.89 19.77 98.39 21.49 98.60 24.41 C 96.38 26.01 93.61 24.69 91.85 23.05 C 90.98 22.36 91.06 20.65 92.26 20.35 Z" />
<path fill="#e2383f" d=" M 36.87 27.90 C 37.03 24.93 39.79 22.31 42.84 23.20 C 45.57 24.31 46.46 27.55 48.79 29.19 C 49.50 29.98 51.39 30.36 50.87 31.77 C 49.14 33.69 46.97 35.66 44.28 35.91 C 43.69 33.03 42.33 30.25 39.91 28.48 C 39.51 28.69 38.72 29.11 38.32 29.33 C 38.01 32.36 41.18 34.62 43.36 36.33 C 42.14 39.03 39.40 40.47 36.85 41.65 C 35.82 38.93 34.90 36.15 32.97 33.90 C 32.31 33.77 30.99 33.51 30.33 33.38 C 30.75 31.13 32.25 29.29 33.76 27.65 C 34.53 26.36 35.93 27.59 36.87 27.90 Z" />
<path fill="#ffffff" d=" M 57.56 25.48 C 59.09 23.68 60.43 27.11 58.90 27.86 C 57.35 28.25 56.93 26.58 57.56 25.48 Z" />
<path fill="#e2383f" d=" M 88.22 24.87 C 91.08 23.85 93.72 25.88 96.19 27.05 C 94.52 31.06 90.09 33.88 90.56 38.63 C 87.17 38.30 84.14 35.93 82.54 33.00 C 85.86 31.94 89.46 28.68 88.22 24.87 Z" />
<path fill="#008147" d=" M 57.04 35.77 C 70.88 31.62 86.59 38.44 93.60 50.94 C 93.19 51.28 92.39 51.97 91.98 52.32 C 87.39 44.32 79.26 38.32 70.04 37.06 C 57.92 35.01 45.03 41.47 39.28 52.29 C 34.55 60.82 34.32 71.73 38.93 80.35 C 40.68 83.68 42.22 87.50 45.89 89.15 C 49.29 91.42 52.49 94.12 56.50 95.28 C 59.26 96.68 62.51 96.93 65.03 98.81 C 50.45 98.69 36.83 87.51 34.16 73.11 C 30.45 57.16 41.20 39.75 57.04 35.77 Z" />
<path fill="#e2383f" d=" M 98.24 35.30 C 105.06 33.02 111.61 42.40 106.96 47.91 C 103.22 52.20 96.39 49.36 94.34 44.77 C 92.10 41.25 94.22 36.24 98.24 35.30 Z" />
<path fill="#ffffff" d=" M 39.28 52.29 C 45.03 41.47 57.92 35.01 70.04 37.06 C 79.26 38.32 87.39 44.32 91.98 52.32 C 91.73 52.50 91.23 52.86 90.97 53.05 C 89.47 54.03 88.06 55.15 86.83 56.46 L 84.96 58.10 C 85.06 57.03 85.27 54.89 85.38 53.82 C 83.62 52.82 81.63 52.52 79.64 52.48 C 79.12 50.83 78.10 49.43 77.09 48.07 L 77.94 50.88 C 76.47 49.82 74.88 50.69 73.31 50.69 C 72.44 48.67 74.85 49.49 75.99 49.43 C 77.10 47.52 78.26 45.64 79.34 43.72 C 78.71 44.29 77.45 45.44 76.82 46.01 C 74.98 42.76 71.48 42.00 68.02 42.07 C 66.35 43.90 63.99 45.54 64.14 48.36 C 63.70 48.34 62.81 48.30 62.37 48.28 C 61.44 46.96 60.77 45.13 59.00 44.72 C 56.73 43.77 55.83 45.97 57.07 47.65 C 57.62 49.08 58.78 50.45 60.28 50.90 L 60.88 51.07 C 61.61 51.28 63.06 51.69 63.79 51.90 C 62.62 54.40 61.74 57.03 61.17 59.73 C 61.49 60.23 62.13 61.22 62.45 61.71 C 61.31 66.11 58.78 69.97 54.61 71.99 C 55.13 70.06 55.26 68.08 54.97 66.11 C 54.20 66.24 52.66 66.52 51.90 66.66 C 51.77 66.03 51.50 64.77 51.37 64.15 C 50.28 65.47 48.70 65.69 47.13 65.89 C 46.89 65.44 46.41 64.55 46.17 64.11 C 45.39 65.54 44.63 66.98 43.89 68.43 C 39.07 70.03 38.55 76.05 38.93 80.35 C 34.32 71.73 34.55 60.82 39.28 52.29 Z" />
<path fill="#e2383f" d=" M 25.48 38.59 C 27.44 37.78 29.50 38.63 31.00 39.95 C 29.98 42.54 28.36 44.84 27.33 47.43 C 30.70 47.86 32.17 44.48 31.89 41.62 C 35.52 41.14 34.95 45.84 34.04 48.01 C 32.62 52.46 26.39 54.37 22.98 51.00 C 18.78 47.60 20.44 40.18 25.48 38.59 Z" />
<path fill="#ffffff" d=" M 102.52 39.50 C 104.17 38.73 104.67 41.52 103.29 42.23 C 102.13 43.43 99.97 46.72 98.29 44.82 C 98.22 42.36 100.65 40.67 102.52 39.50 Z" />
<path fill="#ffffff" d=" M 24.44 42.62 C 25.82 41.59 27.01 44.23 25.57 44.95 C 24.34 46.89 22.31 43.16 24.44 42.62 Z" />
<path fill="#000000" d=" M 64.14 48.36 C 63.99 45.54 66.35 43.90 68.02 42.07 C 71.48 42.00 74.98 42.76 76.82 46.01 C 77.45 45.44 78.71 44.29 79.34 43.72 C 78.26 45.64 77.10 47.52 75.99 49.43 C 74.85 49.49 72.44 48.67 73.31 50.69 C 74.88 50.69 76.47 49.82 77.94 50.88 L 77.09 48.07 C 78.10 49.43 79.12 50.83 79.64 52.48 C 81.63 52.52 83.62 52.82 85.38 53.82 C 85.27 54.89 85.06 57.03 84.96 58.10 L 86.83 56.46 C 85.80 58.31 82.60 58.53 82.38 60.68 C 85.78 62.50 89.97 60.77 93.69 60.84 C 93.01 60.97 91.65 61.23 90.97 61.37 C 90.30 64.77 88.48 67.78 86.62 70.65 C 83.96 74.04 78.90 73.95 75.98 77.00 C 75.88 77.66 75.68 78.99 75.58 79.66 C 79.44 78.27 83.05 76.23 86.99 75.03 C 89.00 72.24 91.05 69.40 92.21 66.13 C 92.90 64.17 93.79 62.26 95.26 60.76 C 95.60 60.53 96.30 60.07 96.65 59.84 L 97.64 60.93 L 96.96 61.12 C 96.03 61.27 95.35 61.73 94.91 62.49 C 92.72 67.17 90.36 71.76 87.60 76.15 C 84.37 76.50 81.57 78.27 78.55 79.36 C 76.97 79.75 76.09 81.11 75.28 82.39 C 74.05 82.56 72.83 82.73 71.60 82.88 C 71.08 87.26 70.82 91.79 72.49 95.97 C 72.52 96.46 72.59 97.43 72.62 97.92 L 72.65 98.44 C 70.54 98.19 68.59 99.02 66.73 99.89 C 66.30 99.62 65.46 99.08 65.03 98.81 C 62.51 96.93 59.26 96.68 56.50 95.28 C 56.51 93.54 54.43 93.34 53.39 92.41 C 51.88 91.92 52.48 90.16 52.22 88.99 C 52.09 85.75 51.00 82.64 49.40 79.84 C 48.04 82.87 46.90 85.99 45.89 89.15 C 42.22 87.50 40.68 83.68 38.93 80.35 C 38.55 76.05 39.07 70.03 43.89 68.43 C 44.63 66.98 45.39 65.54 46.17 64.11 C 46.41 64.55 46.89 65.44 47.13 65.89 C 48.70 65.69 50.28 65.47 51.37 64.15 C 51.50 64.77 51.77 66.03 51.90 66.66 C 52.66 66.52 54.20 66.24 54.97 66.11 C 55.26 68.08 55.13 70.06 54.61 71.99 C 58.78 69.97 61.31 66.11 62.45 61.71 C 62.13 61.22 61.49 60.23 61.17 59.73 C 61.74 57.03 62.62 54.40 63.79 51.90 C 63.06 51.69 61.61 51.28 60.88 51.07 C 62.32 51.03 63.76 50.96 65.20 50.88 C 69.35 50.80 73.40 49.01 76.30 46.06 C 74.89 44.60 73.30 43.30 71.35 42.62 C 71.39 43.17 71.46 44.27 71.49 44.81 C 70.69 42.87 68.97 43.15 67.30 43.64 C 65.70 44.77 64.92 46.54 64.62 48.43 L 64.52 48.95 L 64.29 50.15 C 63.62 49.56 62.87 49.04 62.37 48.28 C 62.81 48.30 63.70 48.34 64.14 48.36 Z" />
<path fill="#6abd44" d=" M 71.35 42.62 C 73.30 43.30 74.89 44.60 76.30 46.06 C 73.40 49.01 69.35 50.80 65.20 50.88 L 64.29 50.15 L 64.52 48.95 C 66.02 49.47 67.34 49.21 68.47 48.18 C 69.81 46.61 67.90 45.05 67.30 43.64 C 68.97 43.15 70.69 42.87 71.49 44.81 C 71.46 44.27 71.39 43.17 71.35 42.62 Z" />
<path fill="#08512b" d=" M 57.07 47.65 C 55.83 45.97 56.73 43.77 59.00 44.72 C 60.77 45.13 61.44 46.96 62.37 48.28 C 62.87 49.04 63.62 49.56 64.29 50.15 L 65.20 50.88 C 63.76 50.96 62.32 51.03 60.88 51.07 L 60.28 50.90 C 60.72 48.93 58.83 47.64 57.07 47.65 Z" />
<path fill="#beb193" d=" M 64.62 48.43 C 64.92 46.54 65.70 44.77 67.30 43.64 C 67.90 45.05 69.81 46.61 68.47 48.18 C 67.32 47.25 65.77 47.82 64.62 48.43 Z" />
<path fill="#aad0bd" d=" M 64.62 48.43 C 65.77 47.82 67.32 47.25 68.47 48.18 C 67.34 49.21 66.02 49.47 64.52 48.95 L 64.62 48.43 Z" />
<path fill="#000000" d=" M 57.07 47.65 C 58.83 47.64 60.72 48.93 60.28 50.90 C 58.78 50.45 57.62 49.08 57.07 47.65 Z" />
<path fill="#da9647" d=" M 93.60 50.94 C 93.98 50.55 94.74 49.76 95.12 49.37 C 97.81 51.02 100.24 53.05 103.01 54.56 C 102.89 55.18 102.77 55.80 102.64 56.42 C 101.35 57.26 100.74 58.61 100.35 60.05 C 99.10 60.15 97.87 60.09 96.65 59.84 C 97.05 59.38 97.86 58.45 98.26 57.98 C 96.76 56.68 96.16 54.84 95.82 52.94 C 95.08 52.89 93.61 52.79 92.87 52.74 C 93.40 54.90 93.89 57.08 94.37 59.26 C 93.39 57.11 92.27 55.02 90.97 53.05 C 91.23 52.86 91.73 52.50 91.98 52.32 C 92.39 51.97 93.19 51.28 93.60 50.94 Z" />
<path fill="#fdcc99" d=" M 67.45 52.40 C 68.87 51.41 70.53 50.61 72.29 50.56 C 74.45 51.92 72.27 55.95 75.82 55.41 C 75.51 55.96 74.90 57.05 74.59 57.60 C 72.49 57.54 69.93 56.55 70.43 53.98 C 69.31 55.08 69.06 56.65 68.76 58.13 C 68.14 58.13 66.88 58.13 66.25 58.12 C 68.19 59.06 68.82 60.58 68.26 62.54 C 70.15 62.68 69.36 65.95 71.49 65.74 C 71.60 66.56 71.81 68.20 71.91 69.02 C 71.43 68.92 70.47 68.73 69.99 68.63 C 72.16 70.64 72.49 75.23 69.11 76.13 C 64.88 76.38 61.12 73.83 58.24 70.98 C 61.15 67.55 62.27 63.15 64.37 59.29 C 64.36 58.62 64.34 57.28 64.33 56.62 C 66.15 55.88 66.01 53.54 67.45 52.40 Z" />
<path fill="#e2383f" d=" M 112.05 53.55 C 113.00 52.52 113.57 50.95 115.01 50.50 C 117.44 49.33 120.36 52.59 118.70 54.81 C 116.97 57.69 112.90 56.86 110.30 55.77 C 108.91 55.39 107.28 53.62 108.60 52.25 C 109.46 52.57 111.19 53.22 112.05 53.55 Z" />
<path fill="#f4f4f4" d=" M 74.62 52.03 C 76.95 49.85 76.48 55.73 74.46 54.07 C 74.50 53.56 74.58 52.54 74.62 52.03 Z" />
<path fill="#cb7a35" d=" M 92.87 52.74 C 93.61 52.79 95.08 52.89 95.82 52.94 C 96.16 54.84 96.76 56.68 98.26 57.98 C 97.86 58.45 97.05 59.38 96.65 59.84 C 96.30 60.07 95.60 60.53 95.26 60.76 C 94.73 60.77 94.21 60.80 93.69 60.84 C 89.97 60.77 85.78 62.50 82.38 60.68 C 82.60 58.53 85.80 58.31 86.83 56.46 C 88.06 55.15 89.47 54.03 90.97 53.05 C 92.27 55.02 93.39 57.11 94.37 59.26 C 93.89 57.08 93.40 54.90 92.87 52.74 Z" />
<path fill="#fdcb99" d=" M 76.45 53.73 C 79.10 52.87 81.92 53.17 84.59 53.69 C 85.42 55.86 83.24 57.11 82.36 58.75 C 80.42 58.99 78.72 57.32 76.87 57.75 C 76.75 56.40 76.61 55.06 76.45 53.73 Z" />
<path fill="#bf764a" d=" M 102.64 56.42 C 102.77 55.80 102.89 55.18 103.01 54.56 C 103.89 55.40 104.75 56.25 105.58 57.13 C 104.56 59.14 102.35 59.56 100.35 60.05 C 100.74 58.61 101.35 57.26 102.64 56.42 Z" />
<path fill="#e2383f" d=" M 10.90 57.01 C 13.41 55.40 17.24 54.67 18.68 58.02 C 17.00 60.38 13.76 61.78 13.68 65.04 C 15.79 69.99 24.12 66.92 23.97 62.01 C 24.46 59.86 21.95 58.49 22.36 56.43 C 24.29 55.71 26.90 56.21 27.52 58.43 C 30.43 63.25 29.31 70.34 24.18 73.17 C 18.93 76.38 11.48 72.85 9.97 67.07 C 8.96 63.66 11.18 60.43 10.90 57.01 Z" />
<path fill="#caa577" d=" M 62.53 58.05 L 63.23 57.97 C 63.23 58.39 63.23 59.25 63.23 59.67 L 62.50 59.77 C 62.51 59.34 62.52 58.48 62.53 58.05 Z" />
<path fill="#ffffff" d=" M 75.91 61.54 C 75.03 66.33 66.90 63.08 69.74 59.16 C 70.15 62.15 73.79 61.81 75.91 61.54 Z" />
<path fill="#ffffff" d=" M 81.56 58.72 C 81.48 59.57 81.31 61.26 81.22 62.11 L 81.51 61.12 C 84.03 62.63 89.84 59.93 89.34 64.55 C 87.39 67.23 86.70 71.22 83.08 72.24 C 79.12 73.69 75.50 76.59 71.16 76.55 C 72.08 75.09 72.47 73.45 72.51 71.74 C 76.41 71.63 74.93 67.18 74.17 64.92 C 75.13 63.82 76.07 62.69 76.97 61.53 C 78.80 61.19 80.30 60.07 81.56 58.72 Z" />
<path fill="#fdcc99" d=" M 93.69 60.84 C 94.21 60.80 94.73 60.77 95.26 60.76 C 93.79 62.26 92.90 64.17 92.21 66.13 C 91.05 69.40 89.00 72.24 86.99 75.03 C 83.05 76.23 79.44 78.27 75.58 79.66 C 75.68 78.99 75.88 77.66 75.98 77.00 C 78.90 73.95 83.96 74.04 86.62 70.65 C 88.48 67.78 90.30 64.77 90.97 61.37 C 91.65 61.23 93.01 60.97 93.69 60.84 Z" />
<path fill="#e2383f" d=" M 101.90 61.95 C 103.33 60.96 105.46 59.36 107.01 61.08 C 106.64 62.93 105.13 64.26 104.20 65.84 C 107.42 65.68 107.29 60.17 111.01 60.62 C 115.30 60.57 116.02 65.64 115.62 68.93 C 116.32 71.26 112.99 73.03 111.21 71.76 C 109.89 69.61 113.72 68.39 112.51 66.20 C 110.63 67.22 110.44 69.61 109.11 71.11 C 107.62 72.95 104.38 73.06 102.96 71.08 C 100.72 68.53 102.01 64.98 101.90 61.95 Z" />
<path fill="#008147" d=" M 94.91 62.49 C 95.35 61.73 96.03 61.27 96.96 61.12 C 100.64 77.31 88.78 94.73 72.62 97.92 C 72.59 97.43 72.52 96.46 72.49 95.97 C 86.90 92.53 98.11 77.35 94.91 62.49 Z" />
<path fill="#ffffff" d=" M 87.60 76.15 C 90.36 71.76 92.72 67.17 94.91 62.49 C 98.11 77.35 86.90 92.53 72.49 95.97 C 70.82 91.79 71.08 87.26 71.60 82.88 C 72.83 82.73 74.05 82.56 75.28 82.39 C 76.09 81.11 76.97 79.75 78.55 79.36 C 81.57 78.27 84.37 76.50 87.60 76.15 Z" />
<path fill="#fdcc99" d=" M 50.20 66.29 C 52.80 66.11 50.54 70.02 49.12 70.49 C 49.66 70.97 50.75 71.91 51.30 72.38 C 50.38 72.31 48.54 72.17 47.62 72.10 C 47.22 69.98 49.38 68.20 50.20 66.29 Z" />
<path fill="#d5bb8b" d=" M 45.54 66.80 C 47.33 65.65 48.07 70.67 46.21 70.84 C 45.43 69.73 45.13 68.12 45.54 66.80 Z" />
<path fill="#cab485" d=" M 53.51 73.06 C 49.90 73.78 51.29 66.80 54.26 66.79 C 55.29 69.18 52.63 70.64 53.51 73.06 Z" />
<path fill="#f0ca95" d=" M 73.22 67.33 C 75.06 67.45 74.68 70.92 72.80 70.76 C 70.66 70.33 72.65 68.28 73.22 67.33 Z" />
<path fill="#fdb140" d=" M 41.38 70.38 C 44.69 69.96 47.09 73.84 50.65 73.72 C 49.02 78.51 47.33 83.42 45.06 87.87 C 42.08 85.09 38.98 81.31 39.67 76.95 C 39.92 75.04 40.46 73.19 40.87 71.33 C 42.25 72.37 42.20 74.59 43.81 75.32 C 45.94 75.96 44.13 78.40 43.00 79.11 C 42.72 77.69 42.55 76.26 42.50 74.81 C 39.98 76.01 41.60 79.17 43.46 79.95 C 43.50 81.06 43.58 82.16 43.71 83.26 C 45.29 81.24 43.54 77.50 46.65 76.69 C 46.56 76.16 46.38 75.11 46.29 74.58 C 44.01 75.59 43.74 73.38 43.25 71.76 C 42.78 71.42 41.85 70.73 41.38 70.38 Z" />
<path fill="#69bd45" d=" M 54.84 73.14 C 55.44 72.60 56.63 71.52 57.22 70.99 C 60.48 76.12 66.71 77.62 72.43 77.43 C 69.72 82.76 70.23 88.71 70.50 94.48 C 65.94 95.38 61.97 92.59 58.05 90.74 C 56.88 88.88 57.34 86.37 56.50 84.31 C 55.93 83.19 56.86 82.29 57.32 81.34 L 57.33 80.93 C 57.92 78.02 56.39 75.43 54.84 73.14 Z" />
<path fill="#ed1c24" d=" M 50.84 81.30 C 50.30 78.40 49.99 74.82 53.03 73.17 C 55.94 74.71 56.39 78.12 57.33 80.93 L 57.32 81.34 C 55.18 80.64 52.98 80.54 50.84 81.30 Z" />
<path fill="#ef1821" d=" M 74.17 77.08 C 75.58 78.08 75.09 82.17 72.81 81.41 C 72.28 79.95 73.13 78.12 74.17 77.08 Z" />
<path fill="#68bd45" d=" M 49.40 79.84 C 51.00 82.64 52.09 85.75 52.22 88.99 C 52.48 90.16 51.88 91.92 53.39 92.41 C 54.43 93.34 56.51 93.54 56.50 95.28 C 52.49 94.12 49.29 91.42 45.89 89.15 C 46.90 85.99 48.04 82.87 49.40 79.84 Z" />
<path fill="#ffffff" d=" M 59.37 85.06 C 58.41 82.02 62.70 79.63 65.17 81.01 C 68.55 81.81 69.29 86.39 67.21 88.83 C 66.47 88.42 64.99 87.59 64.25 87.18 C 65.48 84.63 60.36 84.78 61.23 87.28 L 61.23 88.96 C 59.55 88.65 58.84 87.28 59.11 85.66 L 59.60 85.77 C 59.54 85.59 59.43 85.24 59.37 85.06 Z" />
<path fill="#f3cb99" d=" M 52.03 81.83 C 52.79 81.77 54.29 81.63 55.04 81.57 C 55.63 84.60 56.79 87.64 56.17 90.78 C 59.59 91.91 62.64 93.90 65.98 95.24 C 65.83 95.80 65.52 96.93 65.37 97.50 C 60.87 96.38 56.95 93.98 53.28 91.29 C 53.48 88.05 51.86 85.07 52.03 81.83 Z" />
<path fill="#e2383f" d=" M 60.53 83.64 C 60.08 82.27 62.68 80.96 63.76 81.79 C 63.43 83.03 61.69 83.55 60.53 83.64 Z" />
<path fill="#e2383f" d=" M 64.83 83.96 C 65.95 83.75 64.95 81.17 66.30 82.43 C 66.91 83.36 68.02 84.55 67.62 85.74 C 66.43 86.03 65.47 85.67 64.75 84.65 L 64.83 83.96 Z" />
<path fill="#008147" d=" M 64.75 84.65 C 62.52 86.09 63.16 81.80 64.83 83.96 L 64.75 84.65 Z" />
<path fill="#ed1c24" d=" M 59.37 85.06 C 59.43 85.24 59.54 85.59 59.60 85.77 L 59.11 85.66 L 59.37 85.06 Z" />
<path fill="#cb7a35" d=" M 61.23 87.28 C 60.36 84.78 65.48 84.63 64.25 87.18 C 63.49 87.21 61.99 87.25 61.23 87.28 Z" />
<path fill="#008349" d=" M 35.12 92.95 C 36.50 92.34 37.50 93.79 38.56 94.38 C 40.98 96.41 44.43 97.73 45.46 100.98 C 46.44 104.47 42.23 107.82 39.05 106.11 C 37.70 105.61 36.74 104.01 35.22 104.13 C 33.92 105.17 34.29 106.86 34.36 108.31 C 31.59 108.06 28.34 105.97 27.91 103.04 C 31.93 102.91 33.08 98.23 35.69 95.90 C 35.55 95.16 35.26 93.68 35.12 92.95 Z" />
<path fill="#eecb99" d=" M 69.97 95.20 C 71.34 95.01 71.92 95.64 71.70 97.09 C 70.35 97.25 69.78 96.62 69.97 95.20 Z" />
<path fill="#deb88a" d=" M 66.99 96.14 C 68.47 95.53 69.16 96.02 69.07 97.60 C 67.95 97.85 67.26 97.36 66.99 96.14 Z" />
<path fill="#008248" d=" M 97.85 96.38 C 99.43 97.26 103.17 97.91 101.04 100.50 L 100.82 100.00 C 100.34 98.68 99.44 97.72 98.13 97.11 C 97.16 98.46 96.17 99.80 95.17 101.13 C 96.00 102.01 96.83 102.88 97.67 103.75 C 98.40 102.84 99.15 101.94 99.91 101.05 C 100.90 101.79 102.03 102.03 103.32 101.76 C 103.89 104.22 101.08 105.37 99.56 106.68 C 98.50 107.55 95.16 109.27 96.36 105.92 C 94.85 106.80 92.77 107.27 92.04 109.06 C 92.68 109.27 93.95 109.70 94.59 109.91 C 93.19 111.61 91.17 114.20 88.68 113.32 C 88.89 112.32 89.32 110.34 89.53 109.34 C 87.78 109.51 86.04 109.68 84.29 109.81 C 84.35 108.31 84.41 106.82 84.46 105.32 C 85.67 105.09 86.88 104.86 88.10 104.64 C 87.97 102.22 85.12 99.92 86.55 97.61 C 89.51 95.23 93.20 98.12 96.06 99.37 C 96.67 98.38 97.26 97.38 97.85 96.38 Z" />
<path fill="#ffffff" d=" M 37.45 101.58 C 38.21 100.34 39.17 99.25 40.09 98.13 C 41.17 98.99 42.04 100.58 40.75 101.73 C 40.28 103.11 37.21 103.28 37.45 101.58 Z" />
<path fill="#eb333d" d=" M 98.13 97.11 C 99.44 97.72 100.34 98.68 100.82 100.00 L 99.91 101.05 C 99.15 101.94 98.40 102.84 97.67 103.75 C 96.83 102.88 96.00 102.01 95.17 101.13 C 96.17 99.80 97.16 98.46 98.13 97.11 Z" />
<path fill="#008349" d=" M 47.48 101.79 C 50.35 101.38 52.91 102.88 55.37 104.10 C 52.42 107.51 49.47 112.06 50.81 116.80 C 48.03 116.66 43.79 116.24 42.99 113.02 C 43.53 112.82 44.62 112.41 45.16 112.21 C 46.51 108.90 48.77 105.50 47.48 101.79 Z" />
<path fill="#008147" d=" M 70.75 104.78 C 74.27 103.59 77.94 102.33 81.69 102.25 C 81.20 106.51 79.34 110.46 78.39 114.62 C 81.05 115.12 81.22 111.98 83.01 110.96 C 84.36 112.62 84.52 114.65 83.45 116.48 C 79.62 117.09 76.00 118.67 72.12 118.94 C 72.68 114.52 74.46 110.38 75.81 106.17 C 73.57 105.77 73.11 108.19 72.02 109.46 C 69.31 109.98 70.05 106.26 70.75 104.78 Z" />
<path fill="#ffffff" d=" M 90.38 101.85 C 91.21 102.26 92.03 102.67 92.86 103.09 C 93.34 102.74 94.30 102.04 94.78 101.70 C 95.28 102.31 96.29 103.52 96.79 104.13 C 95.04 106.01 92.80 107.37 90.35 108.13 C 90.14 106.04 90.32 103.94 90.38 101.85 Z" />
<path fill="#008348" d=" M 57.77 109.45 C 54.89 109.00 57.02 105.77 57.98 104.46 C 61.57 104.56 65.18 104.79 68.73 105.37 C 68.77 105.71 68.83 106.39 68.86 106.73 C 66.78 110.09 64.18 113.10 62.09 116.46 C 64.42 117.87 65.39 114.84 67.29 114.45 C 68.66 116.16 67.69 118.51 66.21 119.81 C 62.49 119.26 58.72 119.18 55.00 118.67 C 55.85 114.12 60.64 111.45 62.05 107.11 C 60.27 107.16 58.97 108.26 57.77 109.45 Z" />
<path fill="#008349" d=" M 14.18 118.03 C 13.72 115.51 17.38 114.33 18.86 116.08 C 20.07 117.21 19.11 118.95 18.75 120.25 C 18.62 120.38 18.38 120.63 18.25 120.75 C 17.70 121.08 16.60 121.72 16.04 122.05 C 15.14 120.87 14.01 119.63 14.18 118.03 Z" />
<path fill="#008349" d=" M 113.45 115.01 L 114.24 115.11 C 114.21 115.70 114.14 116.88 114.10 117.47 C 115.15 114.78 117.16 117.02 117.50 118.31 C 117.43 120.27 114.52 119.33 113.38 120.30 L 114.16 119.48 C 112.61 118.45 113.58 116.48 113.45 115.01 Z" />
<path fill="#ffffff" d=" M 14.88 119.08 C 14.16 116.68 17.04 115.24 18.84 116.69 C 18.94 118.61 16.39 121.07 14.88 119.08 Z" />
<path fill="#008349" d=" M 109.49 118.53 C 110.00 118.46 111.02 118.32 111.54 118.25 C 111.57 118.74 111.64 119.70 111.67 120.18 C 112.10 120.21 112.95 120.27 113.38 120.30 C 114.38 121.69 113.20 123.82 111.49 123.53 C 110.32 122.10 108.84 120.52 109.49 118.53 Z" />
<path fill="#ffffff" d=" M 115.27 117.99 C 115.78 118.44 115.78 118.44 115.27 117.99 Z" />
<path fill="#ffffff" d=" M 18.25 120.75 C 18.38 120.63 18.62 120.38 18.75 120.25 C 18.62 120.38 18.38 120.63 18.25 120.75 Z" />
<path fill="#008349" d=" M 18.75 120.25 C 19.51 120.12 21.03 119.86 21.79 119.73 C 20.26 120.65 19.13 121.94 18.40 123.58 C 20.55 123.94 21.20 121.68 22.99 121.27 C 22.30 122.51 21.39 123.61 20.42 124.66 C 19.83 124.39 18.63 123.86 18.04 123.59 C 18.09 122.88 18.20 121.46 18.25 120.75 C 18.38 120.63 18.62 120.38 18.75 120.25 Z" />
<path fill="#008349" d=" M 106.28 124.70 C 104.42 123.80 105.57 120.59 107.60 121.37 C 109.96 122.36 110.13 125.58 108.29 127.19 C 108.45 126.43 108.77 124.92 108.92 124.16 C 108.26 124.30 106.94 124.57 106.28 124.70 Z" />
<path fill="#ffffff" d=" M 111.34 121.32 C 114.14 119.65 111.74 124.77 111.34 121.32 Z" />
<path fill="#008349" d=" M 24.36 122.87 C 25.95 123.51 25.93 125.70 26.85 126.98 C 27.41 126.25 28.55 124.80 29.11 124.07 C 28.47 125.80 27.52 127.39 26.59 128.98 C 26.42 128.55 26.07 127.68 25.90 127.24 C 25.24 127.45 23.92 127.87 23.26 128.08 L 24.00 126.74 C 23.51 126.61 22.53 126.36 22.04 126.24 C 22.16 125.73 22.42 124.72 22.54 124.22 C 23.15 124.41 24.36 124.78 24.97 124.97 L 24.36 122.87 Z" />
<path fill="#ffffff" d=" M 106.93 122.82 C 107.39 123.28 107.39 123.28 106.93 122.82 Z" />
<path fill="#008349" d=" M 101.92 124.03 C 104.13 124.51 104.78 127.10 105.81 128.82 C 103.91 127.95 102.74 125.87 101.92 124.03 Z" />
<path fill="#008349" d=" M 28.27 130.22 C 27.91 128.56 29.39 126.13 30.54 125.32 C 31.20 126.96 30.19 130.21 28.27 130.22 Z" />
<path fill="#008349" d=" M 32.29 127.37 C 35.24 127.48 31.93 130.41 31.58 131.72 C 29.53 131.58 31.46 128.26 32.29 127.37 Z" />
<path fill="#88c5aa" d=" M 95.87 131.95 C 95.05 129.40 97.50 126.69 99.68 129.06 C 99.33 130.00 99.48 130.85 100.13 131.61 C 99.28 133.58 97.23 133.07 95.87 131.95 Z" />
<path fill="#008349" d=" M 34.58 129.62 C 34.79 129.49 35.22 129.21 35.43 129.07 C 35.37 129.82 35.26 131.32 35.20 132.07 C 35.94 131.58 37.42 130.59 38.16 130.09 C 37.05 132.21 34.96 133.52 33.14 134.95 C 33.79 133.19 34.80 131.60 34.58 129.62 Z" />
<path fill="#008349" d=" M 92.87 130.77 C 93.39 130.56 94.44 130.14 94.96 129.94 C 94.46 130.46 93.46 131.50 92.96 132.02 L 93.97 133.35 C 94.54 133.39 95.70 133.49 96.28 133.53 C 95.18 134.51 93.96 134.97 92.90 133.30 C 92.18 134.24 91.89 135.39 91.65 136.53 C 91.01 135.07 90.54 133.09 88.70 132.67 C 88.71 133.62 88.72 135.52 88.73 136.47 C 88.11 135.35 87.65 134.17 87.24 132.97 C 89.10 131.41 92.49 134.15 92.87 130.77 Z" />
<path fill="#008349" d=" M 41.40 132.26 C 44.63 131.97 43.28 135.25 42.19 136.82 C 41.35 135.96 39.46 135.61 39.80 134.07 L 42.06 134.99 C 41.89 134.31 41.57 132.94 41.40 132.26 Z" />
<path fill="#008349" d=" M 80.51 135.31 C 79.87 133.60 81.33 132.82 82.63 132.21 C 82.64 132.53 82.65 133.18 82.66 133.50 L 81.11 133.62 L 81.73 134.80 L 83.38 135.44 L 83.88 136.69 C 85.58 135.43 85.92 133.31 84.23 131.84 C 86.31 132.68 86.14 135.42 86.95 137.20 C 86.26 137.01 84.88 136.61 84.19 136.42 C 83.89 137.89 82.83 138.54 81.45 138.71 C 81.42 138.44 81.36 137.92 81.32 137.66 C 81.79 137.62 82.72 137.55 83.19 137.51 C 83.08 136.10 82.19 135.37 80.51 135.31 Z" />
<path fill="#008349" d=" M 45.46 133.32 C 47.78 133.74 49.67 135.41 52.04 135.64 C 52.64 134.72 53.24 133.81 53.86 132.91 C 53.61 134.88 53.32 136.85 52.97 138.80 C 51.54 138.37 48.09 139.28 49.51 136.23 C 48.43 136.68 47.53 137.36 46.82 138.27 C 47.01 137.29 47.38 135.31 47.57 134.33 C 45.19 133.88 45.73 136.80 44.25 137.77 C 44.51 136.25 44.97 134.78 45.46 133.32 Z" />
<path fill="#008349" d=" M 57.23 133.94 C 57.86 135.12 58.17 136.41 58.15 137.79 C 60.05 137.39 60.15 134.86 61.21 133.57 C 62.02 135.90 59.24 137.82 58.80 140.07 C 56.83 138.77 57.39 135.97 57.23 133.94 Z" />
<path fill="#008349" d=" M 66.36 134.24 C 67.37 135.07 68.37 135.91 69.43 136.68 C 69.53 138.25 70.21 139.12 71.48 139.30 C 71.46 138.49 71.42 136.86 71.41 136.04 C 72.50 136.28 73.44 136.89 74.36 137.50 C 72.64 135.09 77.54 134.77 76.62 136.85 C 76.38 137.85 76.34 138.88 76.62 139.88 C 75.96 139.70 74.64 139.34 73.97 139.16 L 74.74 138.24 C 74.09 138.02 72.78 137.57 72.12 137.35 L 72.61 139.72 C 71.40 139.74 70.20 139.76 69.00 139.79 L 69.63 138.11 C 69.03 138.06 67.83 137.96 67.23 137.90 L 67.40 139.79 C 67.14 139.81 66.62 139.87 66.36 139.89 C 66.39 138.01 66.39 136.12 66.36 134.24 Z" />
<path fill="#ffffff" d=" M 50.91 136.29 C 54.43 136.27 49.35 139.25 50.91 136.29 Z" />
<path fill="#76bc9d" d=" M 62.03 135.85 C 64.71 135.38 65.48 137.90 65.05 140.04 C 63.65 140.00 62.26 139.95 60.86 139.90 C 61.15 138.90 61.73 138.13 62.61 137.59 C 62.47 137.16 62.18 136.29 62.03 135.85 Z" />
</svg>
