<?xml version="1.0" encoding="iso-8859-1"?>
<!-- Generator: Adobe Illustrator 17.1.0, SVG Export Plug-In . SVG Version: 6.00 Build 0)  -->
<!DOCTYPE svg PUBLIC "-//W3C//DTD SVG 1.1//EN" "http://www.w3.org/Graphics/SVG/1.1/DTD/svg11.dtd">
<svg xmlns="http://www.w3.org/2000/svg" xmlns:xlink="http://www.w3.org/1999/xlink" version="1.1" id="Capa_1" x="0px" y="0px" viewBox="0 0 479.869 479.869" style="enable-background:new 0 0 479.869 479.869;" xml:space="preserve" width="256px" height="256px">
<path d="M341.222,170.786c-2.852-3.004-7.6-3.128-10.603-0.276c-15.485,14.697-43.446,23.677-66.633,27.482v-6.684  c43.187-10.519,73.915-49.181,73.915-94.256C337.902,43.538,294.363,0,240.848,0c-53.515,0-97.053,43.538-97.053,97.053  c0,45.074,30.729,83.736,73.915,94.255v6.712c-24.088-3.924-53.075-13.424-68.232-29.093c-2.881-2.976-7.628-3.057-10.605-0.176  c-2.977,2.88-3.056,7.628-0.176,10.605c15.361,15.88,40.329,25.442,62.785,30.632c-3.2,4.385-4.932,9.651-4.931,15.184  l0.021,209.008c-0.381,12.064,4.026,23.484,12.417,32.17c8.423,8.718,19.737,13.52,31.86,13.52c12.122,0,23.437-4.801,31.859-13.519  c8.391-8.686,12.798-20.105,12.418-32.17l0.021-209.009c0.001-5.479-1.699-10.694-4.839-15.054  c21.809-5.042,45.315-14.184,60.639-28.729C343.949,178.537,344.073,173.79,341.222,170.786z M248.986,199.021H232.71V97.053  c0-4.487,3.65-8.138,8.138-8.138s8.139,3.65,8.139,8.138V199.021z M158.795,97.053c0-45.244,36.809-82.053,82.053-82.053  s82.054,36.809,82.054,82.053c0,36.859-24.296,68.643-58.915,78.735V97.053c0-12.758-10.38-23.138-23.139-23.138  c-12.758,0-23.138,10.38-23.138,23.138v78.736C183.091,165.695,158.795,133.91,158.795,97.053z M259.319,214.344  c2.893,0,5.611,1.126,7.656,3.171c2.044,2.045,3.17,4.764,3.17,7.655l-0.021,209.132c0,0.087,0.002,0.173,0.005,0.259  c0.275,8.014-2.641,15.602-8.211,21.367s-13.054,8.941-21.071,8.941s-15.502-3.176-21.072-8.942  c-5.57-5.766-8.486-13.354-8.21-21.365c0.003-0.087,0.005-0.173,0.005-0.26L211.55,225.17c0-2.892,1.126-5.61,3.17-7.655  c2.045-2.045,4.764-3.171,7.656-3.171c0.753,0,1.479-0.114,2.164-0.32c6.367,0.752,11.964,1.098,16.308,1.098  c4.744,0,10.37-0.333,16.542-1.038C258.007,214.248,258.651,214.344,259.319,214.344z M312.947,90.148  c0.271,2.607,0.409,5.268,0.409,7.905c0,4.143-3.357,7.5-7.5,7.5s-7.5-3.357-7.5-7.5c0-2.121-0.11-4.257-0.329-6.351  c-0.429-4.12,2.563-7.808,6.683-8.237C308.824,83.047,312.517,86.029,312.947,90.148z M230.346,30.044c0-4.143,3.357-7.5,7.5-7.5  c29.271,0,56.16,17.157,68.505,43.709c1.746,3.756,0.117,8.217-3.639,9.963c-1.023,0.476-2.099,0.701-3.157,0.701  c-2.828,0-5.535-1.607-6.806-4.34c-9.895-21.282-31.445-35.033-54.903-35.033C233.703,37.544,230.346,34.187,230.346,30.044z" fill="#FFFFFF"/>
<g>
</g>
<g>
</g>
<g>
</g>
<g>
</g>
<g>
</g>
<g>
</g>
<g>
</g>
<g>
</g>
<g>
</g>
<g>
</g>
<g>
</g>
<g>
</g>
<g>
</g>
<g>
</g>
<g>
</g>
</svg>
